<?xml version="1.0" encoding="utf-8"?>
<!-- Generator: Adobe Illustrator 19.0.0, SVG Export Plug-In . SVG Version: 6.00 Build 0)  -->
<svg version="1.1" id="Layer_1" xmlns="http://www.w3.org/2000/svg" xmlns:xlink="http://www.w3.org/1999/xlink" x="0px" y="0px"
	 viewBox="0 0 83.4 27.6" style="enable-background:new 0 0 83.4 27.6;" xml:space="preserve">
<style type="text/css">
	.st0{fill:#E6769C;}
</style>
<path id="XMLID_36_" class="st0" d="M82.8,3.5c0-0.1,0-0.1,0-0.2c-0.1-0.8-0.4-1.6-0.6-2.4c-0.1-0.1-0.1-0.4-0.3-0.4
	c-0.5,0.1-1,0.3-1.4,0.4c-0.5,0.1-0.9,0.2-1.4,0.4c-0.9,0.3-1.8,0.5-2.7,0.8c-0.1,0-0.3,0.1-0.4,0.1l0.3,1l4.5-1.3
	c-1.9,3-3.9,6.1-6.5,8.5c-5.5,5.1-13.9,7.3-23.2,6c-4.8-0.7-9.3-2.4-13.8-4.2c-2-0.8-4-1.5-6-2.2c-5.3-1.8-10.4-0.9-13.7,2.3
	c-0.1,0.1-0.1,0.1-0.2,0.2c-2.3,0.5-4.4,1.3-6.2,2.2c-3.6,1.8-7,4.4-10.7,8.2l0.7,0.7c3.6-3.7,6.9-6.3,10.4-8c1.4-0.7,3-1.3,4.8-1.8
	c-1,1.6-1.6,3.5-1.4,5.4c0.2,2.4,1.5,4.6,3.7,6c1.9,1.2,4.2,1.9,6.5,1.9c1.2,0,2.3-0.2,3.4-0.5c1.8-0.6,3.3-1.9,4-3.4
	c0.7-1.5,0.7-3.4,0-5.1c-1-2.5-2.8-4.3-5.4-5.2c-2.4-0.9-5.2-1-8-0.6c3-2.3,7.2-2.8,11.7-1.3c2,0.7,4,1.5,5.9,2.2
	c4.5,1.7,9.1,3.5,14,4.2c9.6,1.3,18.3-1,24-6.3c2.8-2.6,4.8-5.8,6.8-8.9c0.1,0.5,0.2,0.9,0.3,1.4c0.1,0.9,0.3,1.7,0.6,2.5
	c0.3-0.1,0.6-0.3,0.9-0.4c0,0-0.3-1.1-0.4-1.2C82.9,4.2,82.9,3.8,82.8,3.5z M26.8,13.9c2.3,0.9,3.9,2.4,4.8,4.7
	c0.6,1.5,0.6,3.1,0,4.3c-0.6,1.3-1.9,2.3-3.5,2.9c-2.8,0.9-6.4,0.4-9-1.3c-1.4-0.9-3.1-2.6-3.3-5.3c-0.2-2,0.6-4,1.9-5.6
	C20.9,12.9,24.1,12.9,26.8,13.9z"/>
<g id="XMLID_69_">
</g>
<g id="XMLID_70_">
</g>
<g id="XMLID_71_">
</g>
<g id="XMLID_72_">
</g>
<g id="XMLID_73_">
</g>
<g id="XMLID_74_">
</g>
<g id="XMLID_75_">
</g>
<g id="XMLID_76_">
</g>
<g id="XMLID_77_">
</g>
<g id="XMLID_78_">
</g>
<g id="XMLID_79_">
</g>
<g id="XMLID_80_">
</g>
<g id="XMLID_81_">
</g>
<g id="XMLID_82_">
</g>
<g id="XMLID_83_">
</g>
</svg>
